<?xml version="1.0" standalone="no"?>
<!DOCTYPE svg PUBLIC "-//W3C//DTD SVG 20010904//EN"
 "http://www.w3.org/TR/2001/REC-SVG-20010904/DTD/svg10.dtd">
<svg version="1.0" xmlns="http://www.w3.org/2000/svg"
 width="500.000000pt" height="500.000000pt" viewBox="0 0 500.000000 500.000000"
 preserveAspectRatio="xMidYMid meet">

<g transform="translate(0.000000,500.000000) scale(0.100000,-0.100000)"
fill="#000000" stroke="none">
<path d="M2175 4974 c-415 -56 -785 -203 -1132 -449 -145 -103 -363 -308 -477
-448 -272 -336 -449 -725 -528 -1164 -20 -114 -23 -159 -23 -413 0 -312 9
-390 75 -645 83 -324 254 -658 476 -931 87 -107 269 -290 369 -370 321 -256
726 -440 1125 -511 194 -35 570 -44 755 -19 317 43 568 123 845 267 222 117
406 251 589 432 380 375 623 841 713 1367 19 108 22 164 22 410 -1 250 -3 301
-23 413 -162 926 -797 1662 -1691 1960 -257 86 -472 117 -783 116 -117 -1
-257 -7 -312 -15z m-562 -1379 c50 -21 104 -71 129 -119 30 -57 30 -165 1
-222 -74 -141 -262 -180 -380 -79 -57 49 -86 111 -85 188 0 104 47 182 137
223 59 28 144 32 198 9z m2047 -6 c97 -44 143 -116 143 -224 1 -85 -22 -135
-85 -189 -47 -40 -91 -56 -158 -56 -67 0 -111 16 -158 56 -174 149 -74 432
153 433 39 0 75 -6 105 -20z m145 -1181 c-24 -315 -140 -566 -369 -794 -199
-200 -415 -312 -690 -360 -127 -23 -388 -14 -501 15 -234 62 -412 160 -579
321 -118 113 -195 218 -267 365 -74 152 -109 281 -116 433 l-6 112 1268 0
1267 0 -7 -92z"/>
</g>
</svg>
